<svg width="53.87" height="43.61" viewBox="0 0 411 438" fill="none" xmlns="http://www.w3.org/2000/svg">
<g clip-path="url(#clip0_15_234)">
<path d="M383.12 323.9L342.5 307.32" stroke="#2E3192" stroke-width="5" stroke-miterlimit="10"/>
<path d="M385.34 335.5L342.61 356.29" stroke="#2E3192" stroke-width="5" stroke-miterlimit="10"/>
<path d="M333.64 312.07C324.89 308.87 329.16 293.58 338.5 297.32C347.24 300.51 342.97 315.8 333.64 312.07Z" stroke="#2E3192" stroke-width="5" stroke-miterlimit="10"/>
<path d="M388.86 336.93C377.68 332.85 383.14 313.31 395.07 318.09C406.24 322.17 400.79 341.75 388.86 336.93Z" stroke="#2E3192" stroke-width="5" stroke-miterlimit="10"/>
<path d="M331.38 371.13C345.51 376.79 351.98 353.64 338.73 348.81C324.6 343.15 318.14 366.3 331.38 371.13Z" stroke="#2E3192" stroke-width="5" stroke-miterlimit="10"/>
<path d="M362.81 315.61L386.51 282.13" stroke="#2E3192" stroke-width="5" stroke-miterlimit="10"/>
<path d="M388.59 284.22C377.41 280.14 382.87 260.6 394.79 265.38C405.97 269.45 400.52 288.99 388.59 284.22Z" stroke="#2E3192" stroke-width="5" stroke-miterlimit="10"/>
<mask id="mask0_15_234" style="mask-type:luminance" maskUnits="userSpaceOnUse" x="27" y="9" width="384" height="426">
<path d="M267.15 433.6C259.22 435.74 253.36 429.6 246.79 433.91C236.42 437.55 214.47 427.84 204.04 423.76C193.51 419.89 182.69 416.89 171.91 413.62C156.43 410.44 145.97 397.72 131.5 392.24C25.4999 318.24 -18.1801 139.24 92.3599 48.87C155.18 -2.28 239.88 -2.33 307.36 39.92C319.46 44.72 329.25 49.08 343.5 65.3C347.05 68.76 348.8 73.3 352.15 76.8C352.62 77.28 352.96 77.95 352.32 78.33C347.96 80.92 351.65 82.72 353.15 84.08C363.888 94.399 373.496 105.834 381.81 118.19C381.12 128.74 388.63 135.99 392.64 144.57C400.97 160.75 407.3 177.89 410.54 195.75C403.11 194.49 403.44 188.58 402.24 183.5C398.33 167 390.92 152.17 380.88 138.5C342.76 71.6 249.08 23.15 181.6 77.81C126.6 129.55 165.52 247.6 208.13 297.2C209.64 300.92 224.29 315.2 215.13 315.41C209.41 315.82 203.63 307.74 199.27 314.66C197.27 318.66 189.15 315.92 192.43 322C197.08 329.42 198.91 335.27 192.79 342.14C180.79 354.33 156.61 336.14 145.97 328.24C140.24 325.42 131.82 310.1 126.35 319.82C123.53 325.67 120.62 342.04 124.5 346.82C160.141 391.876 210.752 422.664 267.15 433.6ZM67.3999 136.46L68.0499 136.98C67.0499 139.66 62.2899 143.08 64.4299 145.84C65.1999 146.33 65.8099 145.63 66.4299 145.15C67.4299 144.32 68.4299 142.77 69.8599 143.72C71.2899 144.67 70.1099 146.19 69.7099 147.42C68.3699 151.42 71.9099 151.28 69.7099 157.36C64.7099 174.2 76.3999 188.36 81.1499 203.65C81.5399 206.3 84.8199 206.39 85.3599 203.71C90.8299 190.19 105.06 181.26 105.71 166.03C105.88 161.48 108.45 145.64 105.97 142.97C98.2999 146.82 96.2499 160.28 92.8099 167.79C88.5899 165.79 88.9499 170.03 87.4699 171.71C86.2099 173.13 85.2099 176.06 83.3499 175.13C81.4899 174.2 83.9899 172.13 84.1799 170.49C84.3499 169.07 86.3599 166.83 83.7899 166.49C74.7899 167.1 97.35 139.15 97.4799 133.49C92.4799 136.95 87.5499 137.3 82.3599 139.65C82.5299 136.4 89.2099 131.83 86.0399 130.74C80.0399 130.03 90.52 120.28 91.5499 117.44C92.21 116.44 93.7499 114.84 91.2999 114.44C86.2099 113.44 89.5299 111.54 90.7499 110.15C93.6699 106.79 97.1799 103.93 99.6099 99.36C86.2899 98.05 86.2499 113.14 81.6099 121.56C75.4299 127.11 79.04 112.36 73.7299 111.91C71.2 111.1 62.4399 117.33 62.1199 120.04C61.4799 122.2 63.8099 123.71 65.1199 121.66C66.02 120.73 66.2799 118.79 68.6499 119.5C67.4599 123.79 60.1199 127.06 62.7799 131.42C64.2299 132.6 64.9199 130.42 65.9399 129.71C66.5 129.33 66.9399 128.47 68.0799 129.56C66.8499 132.29 61.7399 135.42 63.4499 138.51C64.9699 139.61 66.0299 136.99 67.3999 136.46ZM186.88 65.1C190.45 66.38 211.53 58.66 202.77 56.31C196.97 56.46 191.04 55.89 185.94 59.65C184.07 61.03 180.28 61.77 180.81 63.92C181.43 66.43 185.02 64.52 186.88 65.1ZM143.88 308.2C133.48 309.73 177.25 332.56 178.75 330.56C179.39 329.56 178.65 328.77 177.87 328.36C165.902 322.832 154.541 316.076 143.97 308.2H143.88ZM116.27 52.55C113.15 55.81 110.27 66.55 116.09 66.29C122.09 63.73 128.3 61.6 133.35 57.01C122.59 53.85 114.97 68.04 116.27 52.55ZM89.3899 216.94C95.3899 214.94 96.0499 208.25 96.6699 203.08C96.3099 198.16 88.2699 207.01 86.1699 207.81C83.0299 209.49 86.5799 216.2 89.3899 216.94ZM64.3899 107.68C66.2131 104.238 69.2824 101.623 72.9699 100.37C75.9699 99.47 78.2499 93.61 76.3099 91.37C72.3099 90.37 69.3099 98.72 65.6499 100.6C64.0299 101.8 63.09 104.19 64.4399 107.68H64.3899Z" fill="white"/>
</mask>
<g mask="url(#mask0_15_234)">
<path d="M102.68 345.81L89.59 278.75L136.35 277.65L102.68 345.81Z" stroke="#1B1464" stroke-width="5" stroke-miterlimit="10"/>
<path d="M146.34 61.87L215.32 9.45996L269.29 51.24L146.34 61.87Z" stroke="#1B1464" stroke-width="5" stroke-miterlimit="10"/>
<path d="M83.5399 55.71L76.9399 84.29L104.06 70" stroke="#1B1464" stroke-width="5" stroke-miterlimit="10"/>
<path d="M188.59 270.18C186.51 272.25 145.24 313.55 144.39 314.37C130.69 328.06 109.97 348.75 96.22 362.54" stroke="#1B1464" stroke-width="5" stroke-miterlimit="10"/>
<path d="M163.47 207.29L76.65 294.11" stroke="#1B1464" stroke-width="5" stroke-miterlimit="10"/>
<path d="M76.9699 248.09L2.49994 190.61" stroke="#1B1464" stroke-width="5" stroke-miterlimit="10"/>
<path d="M77.9099 148.51V345.38" stroke="#1B1464" stroke-width="5" stroke-miterlimit="10"/>
<path d="M213.41 65.6101H141.78" stroke="#1B1464" stroke-width="5" stroke-miterlimit="10"/>
<path d="M137.2 35.6602V134.32" stroke="#1B1464" stroke-width="5" stroke-miterlimit="10"/>
<path d="M154.89 140.28H94.5899H92.7799" stroke="#1B1464" stroke-width="5" stroke-miterlimit="10"/>
<path d="M225.3 434.3L131.26 380.81L245.92 379.06L225.3 434.3Z" stroke="#1B1464" stroke-width="5" stroke-miterlimit="10"/>
<path d="M119.16 389.02C126.69 367.13 137.95 334.41 145.46 312.62L53.34 297.94" stroke="#1B1464" stroke-width="5" stroke-miterlimit="10"/>
<path opacity="0.95" d="M407.53 182.82C404.97 169.22 398.59 157.01 392.77 144.57C388.77 135.99 381.25 128.74 381.93 118.19C373.62 105.834 364.015 94.3994 353.28 84.0802C351.77 82.7102 348.08 80.9202 352.44 78.3302C353.08 77.9502 352.75 77.3302 352.28 76.7902C347.28 70.0102 342.38 62.8902 335.33 57.8702C329.779 53.3298 323.896 49.2116 317.73 45.5502C285.12 27.2002 250.08 9.13017 211.73 8.92017C168.73 9.24017 125.81 20.5802 92.4999 48.9202C-8.83006 133.75 19.8299 281.93 102.82 369.23C104.82 371.13 106.82 374.63 109.28 375.32C118.73 377.97 122.89 389.07 131.64 392.22C146 397.61 156.64 410.48 172.05 413.6C180.34 415.52 188.05 419.09 196.29 420.91C209.68 424.91 233.52 437.91 246.93 433.91C253.49 429.59 259.36 435.7 267.29 433.6C227.06 425.55 188.94 408.22 157.69 380.93C145.558 370.733 134.483 359.343 124.63 346.93C121.42 343.93 123.46 339.45 123.18 335.63C123.3 329.82 125.05 311.18 134.43 318.32C147.69 330.09 161.53 341.88 179.34 345.83C190.55 349.9 202.2 335.71 194.34 325.73C193.606 324.586 192.999 323.366 192.53 322.09C189.25 315.99 197.42 318.73 199.36 314.76C203.73 307.84 209.51 315.9 215.23 315.51C218.35 315.34 219.47 314.05 217.63 311.17C209.34 296.47 196.23 285.28 188.57 270.22C160.75 214.22 131.04 129.14 181.72 77.9102C244.91 26.2802 336.3 66.9102 374.72 129.75C386.88 146.18 397.9 163.35 402.33 183.56C403.54 188.64 403.2 194.56 410.63 195.81C410.34 191.4 408.36 187.21 407.53 182.82ZM116.42 52.5402C115.11 68.0502 122.74 53.8302 133.5 57.0102C128.44 61.5902 122.22 63.7302 116.23 66.2902C110.42 66.5402 113.3 55.8202 116.42 52.5402ZM73.33 92.4102C78.13 87.7502 77.5499 95.7502 75.6699 98.3502C72.2399 101.77 67.05 102.09 64.58 107.68C61.97 99.8902 70.2 97.9602 73.33 92.4102ZM96.8099 203.08C96.1899 208.25 95.53 214.96 89.52 216.94C86.73 216.23 83.1699 209.47 86.3099 207.81C88.4199 207 96.4399 198.17 96.8099 203.08ZM171.97 325.45C173.97 327.08 179.68 327.34 178.97 330.56C178.44 331.36 177.6 330.85 176.97 330.56C173.44 328.9 135.39 311.56 144.14 308.2C152.97 314.61 162.07 320.64 171.97 325.45ZM83.87 166.45C86.44 166.81 84.43 169.07 84.27 170.45C84.08 172.11 81.4799 174.13 83.43 175.1C85.38 176.07 86.3 173.1 87.55 171.67C89.03 169.99 88.6699 165.67 92.8899 167.76C95.5199 161.76 96.5899 155.18 100.14 149.58C101.37 147.32 106.98 138.35 107.03 145.7C106.29 159.27 107.49 174.09 97.8699 185.14C92.7415 190.626 88.543 196.912 85.44 203.75C85.01 204.67 84.5899 205.86 83.3099 205.82C79.7899 204.37 80.31 197.62 77.91 194.56C71.68 183.2 66.32 170.44 69.8 157.4C71.99 151.46 68.5 151.4 69.8 147.46C71.96 143.89 69.15 141.94 66.52 145.19C63.22 147.91 63.52 143.19 65.34 141.51C66.25 140 67.2299 138.51 68.1699 137.04L67.52 136.52C67.13 136.82 66.72 137.1 66.34 137.41C65.46 138.01 64.67 139.55 63.52 138.51C61.82 135.41 66.92 132.29 68.16 129.56C67.01 128.47 66.56 129.33 66.02 129.71C65.02 130.41 64.3 132.59 62.85 131.42C60.2 127.05 67.52 123.8 68.73 119.5C66.35 118.78 66.09 120.73 65.19 121.65C63.88 123.71 61.51 122.2 62.19 120.04C62.51 117.33 71.27 111.11 73.8 111.91C79.12 112.36 75.49 127.1 81.68 121.56C86.38 113.13 86.3399 98.0802 99.6799 99.3702C97.3499 103.78 93.9399 106.6 90.82 110.15C89.61 111.54 86.29 113.49 91.37 114.44C93.83 114.89 92.29 116.44 91.63 117.44C90.63 120.3 80.1199 129.99 86.11 130.76C87.7299 131.24 86.97 132.24 86.36 133.05C85.09 135.14 83.36 136.34 82.44 139.66C87.7 137.27 92.6099 136.93 97.5499 133.5C97.6 138.81 74.88 167.09 83.87 166.46V166.45ZM203.97 59.3102C199.13 63.1234 193.131 65.1665 186.97 65.1002C185.11 64.5202 181.52 66.4302 180.91 63.9202C180.65 61.2702 186.35 59.9802 188.38 58.2302C190.3 56.7502 209.53 53.9802 203.97 59.3102Z" fill="#1B1464"/>
<path d="M139.49 362.43C139.6 369.7 128.18 369.7 128.29 362.43C128.18 355.17 139.6 355.17 139.49 362.43Z" fill="url(#paint0_linear_15_234)"/>
<g style="mix-blend-mode:screen" opacity="0.7">
<path d="M139.49 362.43C139.6 369.7 128.18 369.7 128.29 362.43C128.18 355.17 139.6 355.17 139.49 362.43Z" fill="#F15A29"/>
</g>
<path d="M213.41 32.38C213.52 39.64 202.1 39.64 202.21 32.38C202.1 25.11 213.52 25.11 213.41 32.38Z" fill="url(#paint1_linear_15_234)"/>
<g style="mix-blend-mode:screen" opacity="0.7">
<path d="M213.41 32.38C213.52 39.64 202.1 39.64 202.21 32.38C202.1 25.11 213.52 25.11 213.41 32.38Z" fill="#F15A29"/>
</g>
<path d="M113.43 94.4C113.55 102.64 100.6 102.64 100.73 94.4C100.61 86.17 113.55 86.17 113.43 94.4Z" fill="url(#paint2_linear_15_234)"/>
<g style="mix-blend-mode:screen" opacity="0.7">
<path d="M113.43 94.4C113.55 102.64 100.6 102.64 100.73 94.4C100.61 86.17 113.55 86.17 113.43 94.4Z" fill="#F15A29"/>
</g>
<path d="M69.9699 239.38C70.0799 246.65 58.6699 246.65 58.7699 239.38C58.7099 232.12 70.1199 232.12 69.9699 239.38Z" fill="#262262"/>
<path d="M51.62 171.9C51.68 175.59 45.87 175.59 45.93 171.9C45.99 168.21 51.68 168.2 51.62 171.9Z" fill="url(#paint3_linear_15_234)"/>
<g style="mix-blend-mode:screen" opacity="0.7">
<path d="M51.62 171.9C51.68 175.59 45.87 175.59 45.93 171.9C45.99 168.21 51.68 168.2 51.62 171.9Z" fill="#F15A29"/>
</g>
<path d="M60.7799 97.2502C60.8399 100.94 55.0399 100.94 55.0899 97.2502C55.1399 93.5602 60.8399 93.5602 60.7799 97.2502Z" fill="url(#paint4_linear_15_234)"/>
<g style="mix-blend-mode:screen" opacity="0.7">
<path d="M60.7799 97.2502C60.8399 100.94 55.0399 100.94 55.0899 97.2502C55.1399 93.5602 60.8399 93.5602 60.7799 97.2502Z" fill="#F15A29"/>
</g>
<path d="M106.51 155.15C106.62 162.42 95.1999 162.42 95.3099 155.15C95.1999 147.88 106.62 147.88 106.51 155.15Z" fill="url(#paint5_linear_15_234)"/>
<g style="mix-blend-mode:screen" opacity="0.7">
<path d="M106.51 155.15C106.62 162.42 95.1999 162.42 95.3099 155.15C95.1999 147.88 106.62 147.88 106.51 155.15Z" fill="#F15A29"/>
</g>
<path d="M106.33 231.61C106.43 238.88 95.0199 238.88 95.1299 231.61C95.0199 224.34 106.43 224.34 106.33 231.61Z" fill="url(#paint6_linear_15_234)"/>
<g style="mix-blend-mode:screen" opacity="0.7">
<path d="M106.33 231.61C106.43 238.88 95.0199 238.88 95.1299 231.61C95.0199 224.34 106.43 224.34 106.33 231.61Z" fill="#F15A29"/>
</g>
<path d="M300.17 66.1001H295.83" stroke="#231F20" stroke-width="9.16" stroke-miterlimit="10"/>
<path d="M185.15 185.6L184.66 186.1" stroke="#231F20" stroke-width="9.16" stroke-miterlimit="10"/>
<path d="M164.67 265.03C164.57 286.59 131.8 286.58 131.67 265.03C131.8 243.48 164.57 243.48 164.67 265.03Z" stroke="#00FFFF" stroke-width="9.16" stroke-miterlimit="10"/>
<path d="M40.3599 260.91C40.3612 262.317 40.2238 263.72 39.9499 265.1C38.0032 259.04 36.3032 252.91 34.8499 246.71C38.3989 250.587 40.365 255.654 40.3599 260.91Z" stroke="#00FFFF" stroke-width="9.16" stroke-miterlimit="10"/>
<path d="M142.97 179.41C142.45 149.32 97.6999 149.32 97.1899 179.41C97.6499 209.5 142.41 209.49 142.97 179.41Z" stroke="#00FFFF" stroke-width="9.16" stroke-miterlimit="10"/>
<path d="M341.61 59.5C341.1 29.41 296.34 29.42 295.83 59.5C296.34 89.59 341.1 89.59 341.61 59.5Z" stroke="#00FFFF" stroke-width="9.16" stroke-miterlimit="10"/>
<path d="M100.8 366.12C100.29 336.03 55.53 336.04 55.02 366.12C55.53 396.21 100.29 396.21 100.8 366.12Z" stroke="#00FFFF" stroke-width="9.16" stroke-miterlimit="10"/>
<path d="M153.68 21.5001C153.58 43.0501 120.81 43.0501 120.68 21.5001C120.81 -0.0599213 153.58 -0.0599213 153.68 21.5001Z" stroke="#00FFFF" stroke-width="9.16" stroke-miterlimit="10"/>
<path d="M90.5 142.34C90.42 158.8 65.39 158.8 65.32 142.34C65.25 125.88 90.43 125.87 90.5 142.34Z" stroke="#00FFFF" stroke-width="9.16" stroke-miterlimit="10"/>
</g>
</g>
<defs>
<linearGradient id="paint0_linear_15_234" x1="128.29" y1="362.43" x2="139.49" y2="362.43" gradientUnits="userSpaceOnUse">
<stop stop-color="#FF992E"/>
<stop offset="0.22" stop-color="#F88138"/>
<stop offset="0.67" stop-color="#E74453"/>
<stop offset="1" stop-color="#DA1467"/>
</linearGradient>
<linearGradient id="paint1_linear_15_234" x1="202.21" y1="32.38" x2="213.41" y2="32.38" gradientUnits="userSpaceOnUse">
<stop stop-color="#FF992E"/>
<stop offset="0.22" stop-color="#F88138"/>
<stop offset="0.67" stop-color="#E74453"/>
<stop offset="1" stop-color="#DA1467"/>
</linearGradient>
<linearGradient id="paint2_linear_15_234" x1="100.73" y1="94.4" x2="113.43" y2="94.4" gradientUnits="userSpaceOnUse">
<stop stop-color="#FF992E"/>
<stop offset="0.22" stop-color="#F88138"/>
<stop offset="0.67" stop-color="#E74453"/>
<stop offset="1" stop-color="#DA1467"/>
</linearGradient>
<linearGradient id="paint3_linear_15_234" x1="45.93" y1="171.9" x2="51.62" y2="171.9" gradientUnits="userSpaceOnUse">
<stop stop-color="#FF992E"/>
<stop offset="0.22" stop-color="#F88138"/>
<stop offset="0.67" stop-color="#E74453"/>
<stop offset="1" stop-color="#DA1467"/>
</linearGradient>
<linearGradient id="paint4_linear_15_234" x1="55.0899" y1="97.2502" x2="60.7799" y2="97.2502" gradientUnits="userSpaceOnUse">
<stop stop-color="#FF992E"/>
<stop offset="0.22" stop-color="#F88138"/>
<stop offset="0.67" stop-color="#E74453"/>
<stop offset="1" stop-color="#DA1467"/>
</linearGradient>
<linearGradient id="paint5_linear_15_234" x1="95.3099" y1="155.15" x2="106.51" y2="155.15" gradientUnits="userSpaceOnUse">
<stop stop-color="#FF992E"/>
<stop offset="0.22" stop-color="#F88138"/>
<stop offset="0.67" stop-color="#E74453"/>
<stop offset="1" stop-color="#DA1467"/>
</linearGradient>
<linearGradient id="paint6_linear_15_234" x1="95.1299" y1="231.61" x2="106.33" y2="231.61" gradientUnits="userSpaceOnUse">
<stop stop-color="#FF992E"/>
<stop offset="0.22" stop-color="#F88138"/>
<stop offset="0.67" stop-color="#E74453"/>
<stop offset="1" stop-color="#DA1467"/>
</linearGradient>
<clipPath id="clip0_15_234">
<rect width="409.71" height="437.17" fill="white" transform="translate(0.969971 0.75)"/>
</clipPath>
</defs>
</svg>
